<svg width="801" height="822" viewBox="0 0 801 822" fill="none" xmlns="http://www.w3.org/2000/svg">
<g filter="url(#filter0_d_29_48)">
<path d="M770.392 397C770.392 607.42 604.649 778 400.196 778C195.742 778 30 607.42 30 397C30 186.58 195.742 16 400.196 16C604.649 16 770.392 186.58 770.392 397Z" fill="url(#paint0_radial_29_48)"/>
<path d="M770.392 397C770.392 607.42 604.649 778 400.196 778C195.742 778 30 607.42 30 397C30 186.58 195.742 16 400.196 16C604.649 16 770.392 186.58 770.392 397Z" fill="url(#paint1_radial_29_48)" fill-opacity="0.2"/>
</g>
<g filter="url(#filter1_ddd_29_48)">
<path d="M304.89 511.114C339.029 511.114 367.477 504.465 367.477 504.465C367.477 504.465 381.723 499.394 389.667 495.397C397.611 491.4 410.719 499.025 414.702 504.465C418.263 509.329 421.369 511.777 415.479 517.426C413.935 518.907 411.839 519.683 409.71 519.891C353.948 525.358 328.131 534.015 323.666 530.457C319.114 526.83 304.89 511.114 304.89 511.114Z" fill="url(#paint2_linear_29_48)"/>
<path d="M304.89 511.114C339.029 511.114 367.477 504.465 367.477 504.465C367.477 504.465 381.723 499.394 389.667 495.397C397.611 491.4 410.719 499.025 414.702 504.465C418.263 509.329 421.369 511.777 415.479 517.426C413.935 518.907 411.839 519.683 409.71 519.891C353.948 525.358 328.131 534.015 323.666 530.457C319.114 526.83 304.89 511.114 304.89 511.114Z" fill="url(#paint3_linear_29_48)" fill-opacity="0.44"/>
<path fill-rule="evenodd" clip-rule="evenodd" d="M286.669 574.547C286.669 574.547 291.229 575.179 294.965 577.313C298.882 579.55 300.338 584.106 301.765 588.573C302.181 589.874 302.594 591.168 303.065 592.394C306.382 601.033 311.5 615.616 315.107 631.726C315.488 633.427 315.729 635.155 315.97 636.881L316 637.096C316.371 639.758 317.126 643.954 318.532 647.689L326.153 661.352C327.068 662.993 328.8 664.01 330.679 664.01C332.341 664.01 333.902 663.213 334.877 661.867L338.596 656.73C338.875 656.345 339.168 655.974 339.526 655.659C341.387 654.024 348.862 648.619 370.309 644.062C388.687 640.157 407.358 638.744 416.433 638.257C416.97 638.228 417.561 638.214 418.178 638.2C421.696 638.117 426.092 638.014 426.637 634.995C426.942 633.307 424.361 631.368 424.361 631.368C421.09 627.507 419.538 622.477 420.064 617.444L420.324 614.959C420.36 614.615 420.403 614.277 420.456 613.935C420.755 611.99 421.892 604.886 423.223 599.935C424.779 594.152 428.344 584.824 428.344 584.824L430.81 579.583C431.438 578.249 432.273 577.023 433.283 575.949L434.832 574.304C436.376 572.663 438.828 572.258 440.818 573.316L440.862 573.339L439.155 570.014L436.31 566.689L434.336 564.742C430.381 560.84 425.691 557.762 420.537 555.685L411.844 552.182C411.844 552.182 404.345 550.229 399.326 550.973C395.974 551.47 386.24 553.995 386.24 553.995L366.895 560.645C366.895 560.645 356.269 564.55 349.825 566.085C343.382 567.619 333.894 569.712 333.894 569.712L326.497 570.316L316.256 569.712L304.008 567.302C301.944 566.896 299.826 566.782 297.751 567.133C295.962 567.435 293.797 567.891 292.359 568.503C289.514 569.712 286.669 574.547 286.669 574.547ZM382.835 581.242C379.421 580.033 362.466 582.088 358.369 583.055C357.358 583.294 356.28 583.486 355.126 583.691C350.76 584.467 345.315 585.435 338.314 589.878C337.294 590.526 336.583 591.559 336.282 592.729L335.711 594.954C335.267 596.685 335.067 598.46 335.139 600.246C335.365 605.838 336.005 618.956 337.317 627.787C337.317 627.787 339.593 632.018 344.145 632.018C344.145 632.018 356.093 635.04 369.18 629.6L383.973 624.16C386.249 622.709 389.663 619.928 390.232 615.697C390.232 615.697 392.508 601.19 392.508 589.705C391.992 584.482 386.408 582.506 382.98 581.293L382.835 581.242Z" fill="url(#paint4_linear_29_48)"/>
<path fill-rule="evenodd" clip-rule="evenodd" d="M286.669 574.547C286.669 574.547 291.229 575.179 294.965 577.313C298.882 579.55 300.338 584.106 301.765 588.573C302.181 589.874 302.594 591.168 303.065 592.394C306.382 601.033 311.5 615.616 315.107 631.726C315.488 633.427 315.729 635.155 315.97 636.881L316 637.096C316.371 639.758 317.126 643.954 318.532 647.689L326.153 661.352C327.068 662.993 328.8 664.01 330.679 664.01C332.341 664.01 333.902 663.213 334.877 661.867L338.596 656.73C338.875 656.345 339.168 655.974 339.526 655.659C341.387 654.024 348.862 648.619 370.309 644.062C388.687 640.157 407.358 638.744 416.433 638.257C416.97 638.228 417.561 638.214 418.178 638.2C421.696 638.117 426.092 638.014 426.637 634.995C426.942 633.307 424.361 631.368 424.361 631.368C421.09 627.507 419.538 622.477 420.064 617.444L420.324 614.959C420.36 614.615 420.403 614.277 420.456 613.935C420.755 611.99 421.892 604.886 423.223 599.935C424.779 594.152 428.344 584.824 428.344 584.824L430.81 579.583C431.438 578.249 432.273 577.023 433.283 575.949L434.832 574.304C436.376 572.663 438.828 572.258 440.818 573.316L440.862 573.339L439.155 570.014L436.31 566.689L434.336 564.742C430.381 560.84 425.691 557.762 420.537 555.685L411.844 552.182C411.844 552.182 404.345 550.229 399.326 550.973C395.974 551.47 386.24 553.995 386.24 553.995L366.895 560.645C366.895 560.645 356.269 564.55 349.825 566.085C343.382 567.619 333.894 569.712 333.894 569.712L326.497 570.316L316.256 569.712L304.008 567.302C301.944 566.896 299.826 566.782 297.751 567.133C295.962 567.435 293.797 567.891 292.359 568.503C289.514 569.712 286.669 574.547 286.669 574.547ZM382.835 581.242C379.421 580.033 362.466 582.088 358.369 583.055C357.358 583.294 356.28 583.486 355.126 583.691C350.76 584.467 345.315 585.435 338.314 589.878C337.294 590.526 336.583 591.559 336.282 592.729L335.711 594.954C335.267 596.685 335.067 598.46 335.139 600.246C335.365 605.838 336.005 618.956 337.317 627.787C337.317 627.787 339.593 632.018 344.145 632.018C344.145 632.018 356.093 635.04 369.18 629.6L383.973 624.16C386.249 622.709 389.663 619.928 390.232 615.697C390.232 615.697 392.508 601.19 392.508 589.705C391.992 584.482 386.408 582.506 382.98 581.293L382.835 581.242Z" fill="url(#paint5_linear_29_48)" fill-opacity="0.44"/>
<path d="M476.697 721.439C473.283 723.253 467.685 726.373 465.886 724.462C461.903 720.23 458.708 709.35 449.955 697.26C441.201 685.171 427.765 673.081 427.765 673.081C427.765 673.081 450.524 675.499 455.644 674.29C460.765 673.081 465.317 669.454 466.455 666.432C467.593 663.41 468.731 622.305 468.731 561.857C468.731 525.263 471.576 479.044 469.3 472.395C467.024 465.746 457.92 462.119 451.093 462.119C444.265 462.119 389.643 463.932 344.694 476.626L319.09 450.03C380.54 450.03 459.058 431.291 469.3 429.478C479.541 427.664 514.249 453.052 511.404 457.283C509.337 462.406 507.236 466.12 506.283 472.395C503.438 491.133 505.701 526.284 505.145 564.88C504.672 597.788 504.592 652.359 504.579 667.729C504.577 670.503 504.255 673.236 503.62 675.936L502.026 682.708C501.452 685.149 500.624 687.523 499.556 689.792L493.197 703.305C486.938 712.976 480.11 719.626 476.697 721.439Z" fill="url(#paint6_linear_29_48)"/>
<path d="M476.697 721.439C473.283 723.253 467.685 726.373 465.886 724.462C461.903 720.23 458.708 709.35 449.955 697.26C441.201 685.171 427.765 673.081 427.765 673.081C427.765 673.081 450.524 675.499 455.644 674.29C460.765 673.081 465.317 669.454 466.455 666.432C467.593 663.41 468.731 622.305 468.731 561.857C468.731 525.263 471.576 479.044 469.3 472.395C467.024 465.746 457.92 462.119 451.093 462.119C444.265 462.119 389.643 463.932 344.694 476.626L319.09 450.03C380.54 450.03 459.058 431.291 469.3 429.478C479.541 427.664 514.249 453.052 511.404 457.283C509.337 462.406 507.236 466.12 506.283 472.395C503.438 491.133 505.701 526.284 505.145 564.88C504.672 597.788 504.592 652.359 504.579 667.729C504.577 670.503 504.255 673.236 503.62 675.936L502.026 682.708C501.452 685.149 500.624 687.523 499.556 689.792L493.197 703.305C486.938 712.976 480.11 719.626 476.697 721.439Z" fill="url(#paint7_linear_29_48)" fill-opacity="0.44"/>
</g>
<g filter="url(#filter2_d_29_48)">
<path d="M369.05 337.005C366.155 323.018 355.733 305.217 355.733 305.217C355.733 305.217 368.51 304.822 377.734 311.575C382.945 315.389 392.932 325.561 391.63 329.375C390.327 333.19 384.103 337.64 399.156 345.905C399.156 345.905 386.998 340.183 376.576 348.448C374.887 349.788 371.42 348.975 370.787 346.541C369.629 342.091 369.05 337.005 369.05 337.005Z" fill="url(#paint8_radial_29_48)"/>
<path d="M369.05 337.005C366.155 323.018 355.733 305.217 355.733 305.217C355.733 305.217 368.51 304.822 377.734 311.575C382.945 315.389 392.932 325.561 391.63 329.375C390.327 333.19 384.103 337.64 399.156 345.905C399.156 345.905 386.998 340.183 376.576 348.448C374.887 349.788 371.42 348.975 370.787 346.541C369.629 342.091 369.05 337.005 369.05 337.005Z" fill="url(#paint9_linear_29_48)" fill-opacity="0.2"/>
</g>
<g filter="url(#filter3_ddd_29_48)">
<path fill-rule="evenodd" clip-rule="evenodd" d="M379.483 63.6325C379.483 63.6325 383.536 68.0828 384.694 73.1688C384.694 73.1688 384.694 95.8692 383.847 103.624C383.703 104.949 383.314 106.245 382.481 107.285C381.359 108.684 379.21 110.559 375.43 111.314C375.43 111.314 371.956 113.221 312.901 115.128L334.445 135.968C336.197 137.663 338.626 138.467 341.044 138.151L361.535 135.472C361.535 135.472 367.149 135.472 370.701 138.037C372.114 139.057 372.669 140.811 372.854 142.544C373.257 146.318 373.761 153.125 372.535 155.816C372.535 155.816 372.071 158.872 366.577 160.881C365.175 161.394 363.682 161.595 362.194 161.708L322.744 164.717C322.744 164.717 329.924 170.175 338.35 180.499C338.733 180.969 339.307 181.246 339.913 181.246H353.429C353.429 181.246 358.64 181.246 361.535 185.061C361.535 185.061 363.658 188.324 361.723 193.254C361.013 195.062 360.241 196.906 359.205 198.55C357.914 200.598 355.267 203.311 349.955 204.769L270.057 213.034C270.057 213.034 281.992 222.043 289.398 231.188C292.394 234.888 296.988 237.397 301.706 236.761L322.381 233.973C323.501 233.822 324.616 233.595 325.73 233.367C327.532 233 329.333 232.632 331.161 232.587C332.517 232.553 334.062 232.714 335.607 233.29C339.104 234.592 340.605 238.481 339.787 242.122C338.968 245.772 336.946 251.507 332.23 260.146C331.329 261.797 330.314 263.421 328.857 264.611C328.526 264.882 328.149 265.171 327.722 265.473C325.313 267.175 322.483 268.125 319.563 268.539C314.334 269.281 303.532 270.251 282.794 270.251C282.794 270.251 300.164 284.237 305.953 293.774C305.953 293.774 308.269 296.952 307.111 302.674C307.111 302.674 307.111 310.303 281.057 340.183C281.057 340.183 277.005 345.905 261.372 355.441C261.372 355.441 263.109 356.713 284.531 347.177C284.531 347.177 299.006 338.276 308.848 328.104C308.848 328.104 321.586 315.389 335.481 298.224C335.481 298.224 339.534 293.774 345.324 291.866C345.324 291.866 349.955 286.78 420.011 282.33C420.011 282.33 432.17 280.423 434.486 288.052C434.486 288.052 437.38 289.323 434.486 336.369C434.486 336.369 433.907 349.084 427.538 351.627C427.538 351.627 415.379 355.441 402.642 348.448C402.642 348.448 421.164 360.122 435.543 393.132C436.022 394.232 436.883 395.141 437.969 395.652C439.446 396.347 441.16 396.262 442.495 395.321C448.923 390.794 467.487 375.943 467.487 355.441V288.052C467.487 288.052 466.329 280.423 474.435 277.88C474.435 277.88 505.436 274.689 520.917 277.063C523.262 277.423 525.696 276.535 527.007 274.557C528.424 272.417 528.152 269.577 526.355 267.744L508.381 249.417C506.365 247.362 503.413 246.548 500.6 247.156C491.296 249.168 470.612 252.665 467.487 244.821C467.487 244.821 465.75 235.921 468.645 225.113C468.645 225.113 470.961 220.027 475.014 220.027C475.014 220.027 527.7 220.027 533.49 218.12C536.298 217.195 537.608 214.774 538.213 212.526C538.985 209.653 537.52 206.814 535.378 204.749C531.328 200.847 524.344 194.101 518.827 188.695C515.301 185.241 510.337 183.684 505.461 184.454C487.212 187.337 457.505 191.144 447.287 192.325C444.923 192.598 442.578 192.946 440.232 193.347C435.078 194.228 424.147 195.833 406.695 197.14C406.695 197.14 399.747 197.776 397.431 195.868C397.431 195.868 395.115 194.597 395.694 184.425C395.694 184.425 395.694 179.339 406.116 176.16C406.116 176.16 415.314 173.189 470.324 170.12C473.953 169.917 476.701 169.32 477.665 165.816C478.138 164.096 477.896 160.741 476.759 159.367C474.062 156.108 468.734 150.187 464.592 148.823C458.223 146.725 447.802 147.551 442.591 148.187C440.333 148.463 436.85 149.195 433.282 149.945C428.467 150.957 423.497 152.002 421.169 152.002C417.116 152.002 415.85 150.997 414.221 148.187C413.22 146.46 413.141 145.147 413.064 143.101C412.936 139.727 413.805 136.876 415.379 134.836C417.473 132.125 420.444 130.334 423.485 129.115C425.763 128.202 428.434 127.64 430.667 127.17C431.667 126.96 432.578 126.768 433.328 126.572C437.04 125.598 448.189 124.576 458.387 123.641C467.276 122.826 475.442 122.078 477.33 121.486C479.7 120.742 481.08 118.693 482.397 116.739C483.331 115.352 484.234 114.013 485.435 113.221C485.435 113.221 481.961 102.413 475.014 97.3272C470.277 93.8596 466.329 92.2412 459.96 92.877C457.654 93.1072 442.591 96.6915 442.591 96.6915C442.591 96.6915 435.065 97.963 431.012 96.0557C429.992 95.5757 429.874 93.4824 429.736 91.0365C429.615 88.8813 429.479 86.4523 428.696 84.6122C425.302 76.6339 421.378 73.4179 414.221 68.7185C399.607 59.1213 373.114 57.275 373.114 57.275L379.483 63.6325ZM413.662 221.46C408.494 221.337 400.284 221.746 390.9 224.459C387.103 225.557 383.656 227.583 380.546 230.022C375.641 233.87 371.732 238.84 369.148 244.513L366.993 249.248C366.422 250.501 366.019 251.824 365.794 253.183C365.261 256.4 365.463 260.006 367.91 262.162C368.611 262.779 369.388 263.215 370.186 263.215C377.706 263.215 390.87 261.785 394.264 261.402C394.814 261.339 395.355 261.266 395.902 261.184L411.872 258.765L419.873 256.915C421.857 256.457 423.742 255.649 425.442 254.529L426.171 254.049C427.811 252.968 429.191 251.536 430.21 249.857C431.47 247.783 432.136 245.402 432.136 242.975V239.267C432.136 237.857 432.023 236.451 431.8 235.059L431.477 233.052C431.362 232.336 431.273 231.66 431.189 231.02C430.752 227.696 430.441 225.332 427.254 223.33C424.469 221.58 419.217 221.525 415.378 221.485C414.764 221.479 414.187 221.473 413.662 221.46Z" fill="url(#paint10_radial_29_48)"/>
<path fill-rule="evenodd" clip-rule="evenodd" d="M379.483 63.6325C379.483 63.6325 383.536 68.0828 384.694 73.1688C384.694 73.1688 384.694 95.8692 383.847 103.624C383.703 104.949 383.314 106.245 382.481 107.285C381.359 108.684 379.21 110.559 375.43 111.314C375.43 111.314 371.956 113.221 312.901 115.128L334.445 135.968C336.197 137.663 338.626 138.467 341.044 138.151L361.535 135.472C361.535 135.472 367.149 135.472 370.701 138.037C372.114 139.057 372.669 140.811 372.854 142.544C373.257 146.318 373.761 153.125 372.535 155.816C372.535 155.816 372.071 158.872 366.577 160.881C365.175 161.394 363.682 161.595 362.194 161.708L322.744 164.717C322.744 164.717 329.924 170.175 338.35 180.499C338.733 180.969 339.307 181.246 339.913 181.246H353.429C353.429 181.246 358.64 181.246 361.535 185.061C361.535 185.061 363.658 188.324 361.723 193.254C361.013 195.062 360.241 196.906 359.205 198.55C357.914 200.598 355.267 203.311 349.955 204.769L270.057 213.034C270.057 213.034 281.992 222.043 289.398 231.188C292.394 234.888 296.988 237.397 301.706 236.761L322.381 233.973C323.501 233.822 324.616 233.595 325.73 233.367C327.532 233 329.333 232.632 331.161 232.587C332.517 232.553 334.062 232.714 335.607 233.29C339.104 234.592 340.605 238.481 339.787 242.122C338.968 245.772 336.946 251.507 332.23 260.146C331.329 261.797 330.314 263.421 328.857 264.611C328.526 264.882 328.149 265.171 327.722 265.473C325.313 267.175 322.483 268.125 319.563 268.539C314.334 269.281 303.532 270.251 282.794 270.251C282.794 270.251 300.164 284.237 305.953 293.774C305.953 293.774 308.269 296.952 307.111 302.674C307.111 302.674 307.111 310.303 281.057 340.183C281.057 340.183 277.005 345.905 261.372 355.441C261.372 355.441 263.109 356.713 284.531 347.177C284.531 347.177 299.006 338.276 308.848 328.104C308.848 328.104 321.586 315.389 335.481 298.224C335.481 298.224 339.534 293.774 345.324 291.866C345.324 291.866 349.955 286.78 420.011 282.33C420.011 282.33 432.17 280.423 434.486 288.052C434.486 288.052 437.38 289.323 434.486 336.369C434.486 336.369 433.907 349.084 427.538 351.627C427.538 351.627 415.379 355.441 402.642 348.448C402.642 348.448 421.164 360.122 435.543 393.132C436.022 394.232 436.883 395.141 437.969 395.652C439.446 396.347 441.16 396.262 442.495 395.321C448.923 390.794 467.487 375.943 467.487 355.441V288.052C467.487 288.052 466.329 280.423 474.435 277.88C474.435 277.88 505.436 274.689 520.917 277.063C523.262 277.423 525.696 276.535 527.007 274.557C528.424 272.417 528.152 269.577 526.355 267.744L508.381 249.417C506.365 247.362 503.413 246.548 500.6 247.156C491.296 249.168 470.612 252.665 467.487 244.821C467.487 244.821 465.75 235.921 468.645 225.113C468.645 225.113 470.961 220.027 475.014 220.027C475.014 220.027 527.7 220.027 533.49 218.12C536.298 217.195 537.608 214.774 538.213 212.526C538.985 209.653 537.52 206.814 535.378 204.749C531.328 200.847 524.344 194.101 518.827 188.695C515.301 185.241 510.337 183.684 505.461 184.454C487.212 187.337 457.505 191.144 447.287 192.325C444.923 192.598 442.578 192.946 440.232 193.347C435.078 194.228 424.147 195.833 406.695 197.14C406.695 197.14 399.747 197.776 397.431 195.868C397.431 195.868 395.115 194.597 395.694 184.425C395.694 184.425 395.694 179.339 406.116 176.16C406.116 176.16 415.314 173.189 470.324 170.12C473.953 169.917 476.701 169.32 477.665 165.816C478.138 164.096 477.896 160.741 476.759 159.367C474.062 156.108 468.734 150.187 464.592 148.823C458.223 146.725 447.802 147.551 442.591 148.187C440.333 148.463 436.85 149.195 433.282 149.945C428.467 150.957 423.497 152.002 421.169 152.002C417.116 152.002 415.85 150.997 414.221 148.187C413.22 146.46 413.141 145.147 413.064 143.101C412.936 139.727 413.805 136.876 415.379 134.836C417.473 132.125 420.444 130.334 423.485 129.115C425.763 128.202 428.434 127.64 430.667 127.17C431.667 126.96 432.578 126.768 433.328 126.572C437.04 125.598 448.189 124.576 458.387 123.641C467.276 122.826 475.442 122.078 477.33 121.486C479.7 120.742 481.08 118.693 482.397 116.739C483.331 115.352 484.234 114.013 485.435 113.221C485.435 113.221 481.961 102.413 475.014 97.3272C470.277 93.8596 466.329 92.2412 459.96 92.877C457.654 93.1072 442.591 96.6915 442.591 96.6915C442.591 96.6915 435.065 97.963 431.012 96.0557C429.992 95.5757 429.874 93.4824 429.736 91.0365C429.615 88.8813 429.479 86.4523 428.696 84.6122C425.302 76.6339 421.378 73.4179 414.221 68.7185C399.607 59.1213 373.114 57.275 373.114 57.275L379.483 63.6325ZM413.662 221.46C408.494 221.337 400.284 221.746 390.9 224.459C387.103 225.557 383.656 227.583 380.546 230.022C375.641 233.87 371.732 238.84 369.148 244.513L366.993 249.248C366.422 250.501 366.019 251.824 365.794 253.183C365.261 256.4 365.463 260.006 367.91 262.162C368.611 262.779 369.388 263.215 370.186 263.215C377.706 263.215 390.87 261.785 394.264 261.402C394.814 261.339 395.355 261.266 395.902 261.184L411.872 258.765L419.873 256.915C421.857 256.457 423.742 255.649 425.442 254.529L426.171 254.049C427.811 252.968 429.191 251.536 430.21 249.857C431.47 247.783 432.136 245.402 432.136 242.975V239.267C432.136 237.857 432.023 236.451 431.8 235.059L431.477 233.052C431.362 232.336 431.273 231.66 431.189 231.02C430.752 227.696 430.441 225.332 427.254 223.33C424.469 221.58 419.217 221.525 415.378 221.485C414.764 221.479 414.187 221.473 413.662 221.46Z" fill="url(#paint11_linear_29_48)" fill-opacity="0.2"/>
</g>
<defs>
<filter id="filter0_d_29_48" x="0" y="0" width="800.392" height="822" filterUnits="userSpaceOnUse" color-interpolation-filters="sRGB">
<feFlood flood-opacity="0" result="BackgroundImageFix"/>
<feColorMatrix in="SourceAlpha" type="matrix" values="0 0 0 0 0 0 0 0 0 0 0 0 0 0 0 0 0 0 127 0" result="hardAlpha"/>
<feOffset dy="14"/>
<feGaussianBlur stdDeviation="15"/>
<feComposite in2="hardAlpha" operator="out"/>
<feColorMatrix type="matrix" values="0 0 0 0 0.0523098 0 0 0 0 0.0523098 0 0 0 0 0.0523098 0 0 0 0.5 0"/>
<feBlend mode="normal" in2="BackgroundImageFix" result="effect1_dropShadow_29_48"/>
<feBlend mode="normal" in="SourceGraphic" in2="effect1_dropShadow_29_48" result="shape"/>
</filter>
<filter id="filter1_ddd_29_48" x="196.669" y="394.385" width="344.9" height="415.675" filterUnits="userSpaceOnUse" color-interpolation-filters="sRGB">
<feFlood flood-opacity="0" result="BackgroundImageFix"/>
<feColorMatrix in="SourceAlpha" type="matrix" values="0 0 0 0 0 0 0 0 0 0 0 0 0 0 0 0 0 0 127 0" result="hardAlpha"/>
<feOffset dx="-30" dy="25"/>
<feGaussianBlur stdDeviation="30"/>
<feComposite in2="hardAlpha" operator="out"/>
<feColorMatrix type="matrix" values="0 0 0 0 0 0 0 0 0 0 0 0 0 0 0 0 0 0 0.5 0"/>
<feBlend mode="normal" in2="BackgroundImageFix" result="effect1_dropShadow_29_48"/>
<feColorMatrix in="SourceAlpha" type="matrix" values="0 0 0 0 0 0 0 0 0 0 0 0 0 0 0 0 0 0 127 0" result="hardAlpha"/>
<feOffset dx="-25" dy="20"/>
<feGaussianBlur stdDeviation="25"/>
<feComposite in2="hardAlpha" operator="out"/>
<feColorMatrix type="matrix" values="0 0 0 0 0 0 0 0 0 0 0 0 0 0 0 0 0 0 0.3 0"/>
<feBlend mode="normal" in2="effect1_dropShadow_29_48" result="effect2_dropShadow_29_48"/>
<feColorMatrix in="SourceAlpha" type="matrix" values="0 0 0 0 0 0 0 0 0 0 0 0 0 0 0 0 0 0 127 0" result="hardAlpha"/>
<feOffset dx="-5" dy="5"/>
<feGaussianBlur stdDeviation="5"/>
<feComposite in2="hardAlpha" operator="out"/>
<feColorMatrix type="matrix" values="0 0 0 0 0 0 0 0 0 0 0 0 0 0 0 0 0 0 0.6 0"/>
<feBlend mode="normal" in2="effect2_dropShadow_29_48" result="effect3_dropShadow_29_48"/>
<feBlend mode="normal" in="SourceGraphic" in2="effect3_dropShadow_29_48" result="shape"/>
</filter>
<filter id="filter2_d_29_48" x="310.733" y="290.213" width="103.423" height="103.878" filterUnits="userSpaceOnUse" color-interpolation-filters="sRGB">
<feFlood flood-opacity="0" result="BackgroundImageFix"/>
<feColorMatrix in="SourceAlpha" type="matrix" values="0 0 0 0 0 0 0 0 0 0 0 0 0 0 0 0 0 0 127 0" result="hardAlpha"/>
<feOffset dx="-15" dy="15"/>
<feGaussianBlur stdDeviation="15"/>
<feComposite in2="hardAlpha" operator="out"/>
<feColorMatrix type="matrix" values="0 0 0 0 0 0 0 0 0 0 0 0 0 0 0 0 0 0 0.4 0"/>
<feBlend mode="normal" in2="BackgroundImageFix" result="effect1_dropShadow_29_48"/>
<feBlend mode="normal" in="SourceGraphic" in2="effect1_dropShadow_29_48" result="shape"/>
</filter>
<filter id="filter3_ddd_29_48" x="216.372" y="42.275" width="337.049" height="398.835" filterUnits="userSpaceOnUse" color-interpolation-filters="sRGB">
<feFlood flood-opacity="0" result="BackgroundImageFix"/>
<feColorMatrix in="SourceAlpha" type="matrix" values="0 0 0 0 0 0 0 0 0 0 0 0 0 0 0 0 0 0 127 0" result="hardAlpha"/>
<feOffset dx="-15" dy="15"/>
<feGaussianBlur stdDeviation="15"/>
<feComposite in2="hardAlpha" operator="out"/>
<feColorMatrix type="matrix" values="0 0 0 0 0 0 0 0 0 0 0 0 0 0 0 0 0 0 0.4 0"/>
<feBlend mode="normal" in2="BackgroundImageFix" result="effect1_dropShadow_29_48"/>
<feColorMatrix in="SourceAlpha" type="matrix" values="0 0 0 0 0 0 0 0 0 0 0 0 0 0 0 0 0 0 127 0" result="hardAlpha"/>
<feOffset dx="-10" dy="10"/>
<feGaussianBlur stdDeviation="10"/>
<feComposite in2="hardAlpha" operator="out"/>
<feColorMatrix type="matrix" values="0 0 0 0 0 0 0 0 0 0 0 0 0 0 0 0 0 0 0.5 0"/>
<feBlend mode="normal" in2="effect1_dropShadow_29_48" result="effect2_dropShadow_29_48"/>
<feColorMatrix in="SourceAlpha" type="matrix" values="0 0 0 0 0 0 0 0 0 0 0 0 0 0 0 0 0 0 127 0" result="hardAlpha"/>
<feOffset dx="-5" dy="5"/>
<feGaussianBlur stdDeviation="5"/>
<feComposite in2="hardAlpha" operator="out"/>
<feColorMatrix type="matrix" values="0 0 0 0 0 0 0 0 0 0 0 0 0 0 0 0 0 0 0.65 0"/>
<feBlend mode="normal" in2="effect2_dropShadow_29_48" result="effect3_dropShadow_29_48"/>
<feBlend mode="normal" in="SourceGraphic" in2="effect3_dropShadow_29_48" result="shape"/>
</filter>
<radialGradient id="paint0_radial_29_48" cx="0" cy="0" r="1" gradientUnits="userSpaceOnUse" gradientTransform="translate(417.472 29.97) rotate(90.5247) scale(741.076 570.834)">
<stop stop-color="#DE0404"/>
<stop offset="0.394633" stop-color="#C90101"/>
<stop offset="0.845926" stop-color="#7C0808"/>
<stop offset="1" stop-color="#7B0000"/>
</radialGradient>
<radialGradient id="paint1_radial_29_48" cx="0" cy="0" r="1" gradientUnits="userSpaceOnUse" gradientTransform="translate(475.777 778) rotate(-2.67634) scale(401.175 239.958)">
<stop stop-opacity="0"/>
<stop offset="1"/>
</radialGradient>
<linearGradient id="paint2_linear_29_48" x1="398.546" y1="497.091" x2="387.309" y2="546.719" gradientUnits="userSpaceOnUse">
<stop offset="0.315217" stop-color="#282828"/>
<stop offset="1" stop-color="#434343"/>
</linearGradient>
<linearGradient id="paint3_linear_29_48" x1="339.742" y1="498.062" x2="344.212" y2="535.378" gradientUnits="userSpaceOnUse">
<stop stop-color="#1E1E1E"/>
<stop offset="1" stop-color="#050505"/>
</linearGradient>
<linearGradient id="paint4_linear_29_48" x1="413.472" y1="559.396" x2="348.761" y2="685.886" gradientUnits="userSpaceOnUse">
<stop offset="0.315217" stop-color="#282828"/>
<stop offset="1" stop-color="#434343"/>
</linearGradient>
<linearGradient id="paint5_linear_29_48" x1="333.856" y1="562.366" x2="363.052" y2="670.25" gradientUnits="userSpaceOnUse">
<stop stop-color="#1E1E1E"/>
<stop offset="1" stop-color="#050505"/>
</linearGradient>
<linearGradient id="paint6_linear_29_48" x1="477.379" y1="451.826" x2="269.441" y2="646.088" gradientUnits="userSpaceOnUse">
<stop offset="0.315217" stop-color="#282828"/>
<stop offset="1" stop-color="#434343"/>
</linearGradient>
<linearGradient id="paint7_linear_29_48" x1="377.993" y1="459.583" x2="507.658" y2="688.575" gradientUnits="userSpaceOnUse">
<stop stop-color="#1E1E1E"/>
<stop offset="1" stop-color="#050505"/>
</linearGradient>
<radialGradient id="paint8_radial_29_48" cx="0" cy="0" r="1" gradientUnits="userSpaceOnUse" gradientTransform="translate(376.608 325.687) rotate(87.9528) scale(23.4182 42.7023)">
<stop stop-color="#484848"/>
<stop offset="1" stop-color="#222222"/>
</radialGradient>
<linearGradient id="paint9_linear_29_48" x1="382.455" y1="326.263" x2="361.273" y2="348.089" gradientUnits="userSpaceOnUse">
<stop stop-color="#170E0E"/>
<stop offset="1" stop-color="#2E2E2E"/>
</linearGradient>
<radialGradient id="paint10_radial_29_48" cx="0" cy="0" r="1" gradientUnits="userSpaceOnUse" gradientTransform="translate(394.56 215.386) rotate(88.3083) scale(180.803 272.505)">
<stop stop-color="#484848"/>
<stop offset="1" stop-color="#222222"/>
</radialGradient>
<linearGradient id="paint11_linear_29_48" x1="431.864" y1="219.831" x2="270.317" y2="357.363" gradientUnits="userSpaceOnUse">
<stop stop-color="#170E0E"/>
<stop offset="1" stop-color="#2E2E2E"/>
</linearGradient>
</defs>
</svg>
