<!-- icon666.com - MILLIONS vector ICONS FREE --><svg id="Layer_3" enable-background="new 0 0 32 32" viewBox="0 0 32 32" xmlns="http://www.w3.org/2000/svg"><path d="m25.88 1h-19.76c-2.82001 0-5.12 2.29999-5.12 5.12v19.76c0 2.82001 2.29999 5.12 5.12 5.12h19.76c2.82001 0 5.12-2.29999 5.12-5.12v-19.76c0-2.82001-2.29999-5.12-5.12-5.12zm-14.16998 24.09998c.03613-2.10661 3.14984-2.09756 3.19.00007-.03738 2.08582-3.15722 2.09422-3.19-.00007zm7.33997 0c.03624-2.10258 3.14408-2.10232 3.17999.00007-.03316 2.09056-3.1471 2.09021-3.17999-.00007zm4.28003-5.96998c-.06.5-.48999.87-.98999.87h-10.46003v.95001h10.34998c.55005 0 1 .44995 1 1 0 .54999-.44995 1-1 1h-11.34998c-.56 0-1-.45001-1-1v-2.88l-1.16003-8.94-.75995-1.55005h-1.96002c-1.30814-.0197-1.31805-1.98341.00005-1.99999-.00005-.00001 2.58998-.00001 2.58998-.00001.37994 0 .72998.22003.89996.56006l.82001 1.69995h13.22003c.5773-.01109 1.08638.55705.98997 1.13002.00002-.00002-1.18998 9.16001-1.18998 9.16001z" fill="#000000" style="fill: rgb(48, 45, 52);"></path><path d="m11.75 18h9.71002l.92999-7.16003h-11.55999z" fill="#000000" style="fill: rgb(48, 45, 52);"></path></svg>